<mxfile host="app.diagrams.net" modified="2023-05-25T01:57:09.488Z" agent="Mozilla/5.0 (Windows NT 10.0; Win64; x64) AppleWebKit/537.36 (KHTML, like Gecko) Chrome/113.0.0.0 Safari/537.36" etag="TEX3Oxv4kNvifFwj1rt-" version="21.3.3" type="device">
  <diagram name="Page-1" id="e56a1550-8fbb-45ad-956c-1786394a9013">
    <mxGraphModel dx="2049" dy="1137" grid="1" gridSize="10" guides="1" tooltips="1" connect="1" arrows="1" fold="1" page="1" pageScale="1" pageWidth="1100" pageHeight="850" background="none" math="0" shadow="0">
      <root>
        <mxCell id="0" />
        <mxCell id="1" parent="0" />
        <mxCell id="yacdEGkcFhaqMKAfXrDm-109" value="movies_movie" style="swimlane;html=1;fontStyle=0;childLayout=stackLayout;horizontal=1;startSize=26;fillColor=#e0e0e0;horizontalStack=0;resizeParent=1;resizeLast=0;collapsible=1;marginBottom=0;swimlaneFillColor=#ffffff;align=center;rounded=0;shadow=0;comic=0;labelBackgroundColor=none;strokeWidth=1;fontFamily=Verdana;fontSize=14" vertex="1" parent="1">
          <mxGeometry x="410" y="40" width="200" height="342" as="geometry">
            <mxRectangle x="120" y="50" width="80" height="30" as="alternateBounds" />
          </mxGeometry>
        </mxCell>
        <mxCell id="yacdEGkcFhaqMKAfXrDm-110" value="id" style="shape=partialRectangle;top=0;left=0;right=0;bottom=1;html=1;align=center;verticalAlign=middle;fillColor=none;spacingLeft=34;spacingRight=4;whiteSpace=wrap;overflow=hidden;rotatable=0;points=[[0,0.5],[1,0.5]];portConstraint=eastwest;dropTarget=0;fontStyle=5;" vertex="1" parent="yacdEGkcFhaqMKAfXrDm-109">
          <mxGeometry y="26" width="200" height="30" as="geometry" />
        </mxCell>
        <mxCell id="yacdEGkcFhaqMKAfXrDm-111" value="PK" style="shape=partialRectangle;top=0;left=0;bottom=0;html=1;fillColor=none;align=center;verticalAlign=middle;spacingLeft=4;spacingRight=4;whiteSpace=wrap;overflow=hidden;rotatable=0;points=[];portConstraint=eastwest;part=1;" vertex="1" connectable="0" parent="yacdEGkcFhaqMKAfXrDm-110">
          <mxGeometry width="100" height="30" as="geometry" />
        </mxCell>
        <mxCell id="yacdEGkcFhaqMKAfXrDm-132" value="Text" style="shape=partialRectangle;top=0;left=0;right=0;bottom=0;html=1;align=center;verticalAlign=top;fillColor=none;spacingLeft=34;spacingRight=4;whiteSpace=wrap;overflow=hidden;rotatable=0;points=[[0,0.5],[1,0.5]];portConstraint=eastwest;dropTarget=0;" vertex="1" parent="yacdEGkcFhaqMKAfXrDm-109">
          <mxGeometry y="56" width="200" height="26" as="geometry" />
        </mxCell>
        <mxCell id="yacdEGkcFhaqMKAfXrDm-133" value="movie_id" style="shape=partialRectangle;top=0;left=0;bottom=0;html=1;fillColor=none;align=center;verticalAlign=top;spacingLeft=4;spacingRight=4;whiteSpace=wrap;overflow=hidden;rotatable=0;points=[];portConstraint=eastwest;part=1;" vertex="1" connectable="0" parent="yacdEGkcFhaqMKAfXrDm-132">
          <mxGeometry width="100" height="26" as="geometry" />
        </mxCell>
        <mxCell id="yacdEGkcFhaqMKAfXrDm-149" value="Text" style="shape=partialRectangle;top=0;left=0;right=0;bottom=0;html=1;align=center;verticalAlign=top;fillColor=none;spacingLeft=34;spacingRight=4;whiteSpace=wrap;overflow=hidden;rotatable=0;points=[[0,0.5],[1,0.5]];portConstraint=eastwest;dropTarget=0;" vertex="1" parent="yacdEGkcFhaqMKAfXrDm-109">
          <mxGeometry y="82" width="200" height="26" as="geometry" />
        </mxCell>
        <mxCell id="yacdEGkcFhaqMKAfXrDm-150" value="title" style="shape=partialRectangle;top=0;left=0;bottom=0;html=1;fillColor=none;align=center;verticalAlign=top;spacingLeft=4;spacingRight=4;whiteSpace=wrap;overflow=hidden;rotatable=0;points=[];portConstraint=eastwest;part=1;" vertex="1" connectable="0" parent="yacdEGkcFhaqMKAfXrDm-149">
          <mxGeometry width="100" height="26" as="geometry" />
        </mxCell>
        <mxCell id="yacdEGkcFhaqMKAfXrDm-151" value="Text" style="shape=partialRectangle;top=0;left=0;right=0;bottom=0;html=1;align=center;verticalAlign=top;fillColor=none;spacingLeft=34;spacingRight=4;whiteSpace=wrap;overflow=hidden;rotatable=0;points=[[0,0.5],[1,0.5]];portConstraint=eastwest;dropTarget=0;" vertex="1" parent="yacdEGkcFhaqMKAfXrDm-109">
          <mxGeometry y="108" width="200" height="26" as="geometry" />
        </mxCell>
        <mxCell id="yacdEGkcFhaqMKAfXrDm-152" value="original_title" style="shape=partialRectangle;top=0;left=0;bottom=0;html=1;fillColor=none;align=center;verticalAlign=top;spacingLeft=4;spacingRight=4;whiteSpace=wrap;overflow=hidden;rotatable=0;points=[];portConstraint=eastwest;part=1;" vertex="1" connectable="0" parent="yacdEGkcFhaqMKAfXrDm-151">
          <mxGeometry width="100" height="26" as="geometry" />
        </mxCell>
        <mxCell id="yacdEGkcFhaqMKAfXrDm-153" value="Text" style="shape=partialRectangle;top=0;left=0;right=0;bottom=0;html=1;align=center;verticalAlign=top;fillColor=none;spacingLeft=34;spacingRight=4;whiteSpace=wrap;overflow=hidden;rotatable=0;points=[[0,0.5],[1,0.5]];portConstraint=eastwest;dropTarget=0;" vertex="1" parent="yacdEGkcFhaqMKAfXrDm-109">
          <mxGeometry y="134" width="200" height="26" as="geometry" />
        </mxCell>
        <mxCell id="yacdEGkcFhaqMKAfXrDm-154" value="overview" style="shape=partialRectangle;top=0;left=0;bottom=0;html=1;fillColor=none;align=center;verticalAlign=top;spacingLeft=4;spacingRight=4;whiteSpace=wrap;overflow=hidden;rotatable=0;points=[];portConstraint=eastwest;part=1;" vertex="1" connectable="0" parent="yacdEGkcFhaqMKAfXrDm-153">
          <mxGeometry width="100" height="26" as="geometry" />
        </mxCell>
        <mxCell id="yacdEGkcFhaqMKAfXrDm-161" value="Text" style="shape=partialRectangle;top=0;left=0;right=0;bottom=0;html=1;align=center;verticalAlign=top;fillColor=none;spacingLeft=34;spacingRight=4;whiteSpace=wrap;overflow=hidden;rotatable=0;points=[[0,0.5],[1,0.5]];portConstraint=eastwest;dropTarget=0;" vertex="1" parent="yacdEGkcFhaqMKAfXrDm-109">
          <mxGeometry y="160" width="200" height="26" as="geometry" />
        </mxCell>
        <mxCell id="yacdEGkcFhaqMKAfXrDm-162" value="poster_path" style="shape=partialRectangle;top=0;left=0;bottom=0;html=1;fillColor=none;align=center;verticalAlign=top;spacingLeft=4;spacingRight=4;whiteSpace=wrap;overflow=hidden;rotatable=0;points=[];portConstraint=eastwest;part=1;" vertex="1" connectable="0" parent="yacdEGkcFhaqMKAfXrDm-161">
          <mxGeometry width="100" height="26" as="geometry" />
        </mxCell>
        <mxCell id="yacdEGkcFhaqMKAfXrDm-165" value="&amp;nbsp; Float" style="shape=partialRectangle;top=0;left=0;right=0;bottom=0;html=1;align=center;verticalAlign=top;fillColor=none;spacingLeft=34;spacingRight=4;whiteSpace=wrap;overflow=hidden;rotatable=0;points=[[0,0.5],[1,0.5]];portConstraint=eastwest;dropTarget=0;" vertex="1" parent="yacdEGkcFhaqMKAfXrDm-109">
          <mxGeometry y="186" width="200" height="26" as="geometry" />
        </mxCell>
        <mxCell id="yacdEGkcFhaqMKAfXrDm-166" value="vote_average" style="shape=partialRectangle;top=0;left=0;bottom=0;html=1;fillColor=none;align=center;verticalAlign=top;spacingLeft=4;spacingRight=4;whiteSpace=wrap;overflow=hidden;rotatable=0;points=[];portConstraint=eastwest;part=1;" vertex="1" connectable="0" parent="yacdEGkcFhaqMKAfXrDm-165">
          <mxGeometry width="100" height="26" as="geometry" />
        </mxCell>
        <mxCell id="yacdEGkcFhaqMKAfXrDm-163" value="&amp;nbsp; &amp;nbsp; &amp;nbsp;Integer" style="shape=partialRectangle;top=0;left=0;right=0;bottom=0;html=1;align=center;verticalAlign=top;fillColor=none;spacingLeft=34;spacingRight=4;whiteSpace=wrap;overflow=hidden;rotatable=0;points=[[0,0.5],[1,0.5]];portConstraint=eastwest;dropTarget=0;" vertex="1" parent="yacdEGkcFhaqMKAfXrDm-109">
          <mxGeometry y="212" width="200" height="26" as="geometry" />
        </mxCell>
        <mxCell id="yacdEGkcFhaqMKAfXrDm-164" value="vote_count" style="shape=partialRectangle;top=0;left=0;bottom=0;html=1;fillColor=none;align=center;verticalAlign=top;spacingLeft=4;spacingRight=4;whiteSpace=wrap;overflow=hidden;rotatable=0;points=[];portConstraint=eastwest;part=1;" vertex="1" connectable="0" parent="yacdEGkcFhaqMKAfXrDm-163">
          <mxGeometry width="100" height="26" as="geometry" />
        </mxCell>
        <mxCell id="yacdEGkcFhaqMKAfXrDm-159" value="Text" style="shape=partialRectangle;top=0;left=0;right=0;bottom=0;html=1;align=center;verticalAlign=top;fillColor=none;spacingLeft=34;spacingRight=4;whiteSpace=wrap;overflow=hidden;rotatable=0;points=[[0,0.5],[1,0.5]];portConstraint=eastwest;dropTarget=0;" vertex="1" parent="yacdEGkcFhaqMKAfXrDm-109">
          <mxGeometry y="238" width="200" height="26" as="geometry" />
        </mxCell>
        <mxCell id="yacdEGkcFhaqMKAfXrDm-160" value="release_date" style="shape=partialRectangle;top=0;left=0;bottom=0;html=1;fillColor=none;align=center;verticalAlign=top;spacingLeft=4;spacingRight=4;whiteSpace=wrap;overflow=hidden;rotatable=0;points=[];portConstraint=eastwest;part=1;" vertex="1" connectable="0" parent="yacdEGkcFhaqMKAfXrDm-159">
          <mxGeometry width="100" height="26" as="geometry" />
        </mxCell>
        <mxCell id="yacdEGkcFhaqMKAfXrDm-157" value="&amp;nbsp; Float" style="shape=partialRectangle;top=0;left=0;right=0;bottom=0;html=1;align=center;verticalAlign=top;fillColor=none;spacingLeft=34;spacingRight=4;whiteSpace=wrap;overflow=hidden;rotatable=0;points=[[0,0.5],[1,0.5]];portConstraint=eastwest;dropTarget=0;" vertex="1" parent="yacdEGkcFhaqMKAfXrDm-109">
          <mxGeometry y="264" width="200" height="26" as="geometry" />
        </mxCell>
        <mxCell id="yacdEGkcFhaqMKAfXrDm-158" value="popularity" style="shape=partialRectangle;top=0;left=0;bottom=0;html=1;fillColor=none;align=center;verticalAlign=top;spacingLeft=4;spacingRight=4;whiteSpace=wrap;overflow=hidden;rotatable=0;points=[];portConstraint=eastwest;part=1;" vertex="1" connectable="0" parent="yacdEGkcFhaqMKAfXrDm-157">
          <mxGeometry width="100" height="26" as="geometry" />
        </mxCell>
        <mxCell id="yacdEGkcFhaqMKAfXrDm-147" value="&amp;nbsp;Bool" style="shape=partialRectangle;top=0;left=0;right=0;bottom=0;html=1;align=center;verticalAlign=top;fillColor=none;spacingLeft=34;spacingRight=4;whiteSpace=wrap;overflow=hidden;rotatable=0;points=[[0,0.5],[1,0.5]];portConstraint=eastwest;dropTarget=0;" vertex="1" parent="yacdEGkcFhaqMKAfXrDm-109">
          <mxGeometry y="290" width="200" height="26" as="geometry" />
        </mxCell>
        <mxCell id="yacdEGkcFhaqMKAfXrDm-148" value="adult" style="shape=partialRectangle;top=0;left=0;bottom=0;html=1;fillColor=none;align=center;verticalAlign=top;spacingLeft=4;spacingRight=4;whiteSpace=wrap;overflow=hidden;rotatable=0;points=[];portConstraint=eastwest;part=1;" vertex="1" connectable="0" parent="yacdEGkcFhaqMKAfXrDm-147">
          <mxGeometry width="100" height="26" as="geometry" />
        </mxCell>
        <mxCell id="yacdEGkcFhaqMKAfXrDm-145" value="Text" style="shape=partialRectangle;top=0;left=0;right=0;bottom=0;html=1;align=center;verticalAlign=top;fillColor=none;spacingLeft=34;spacingRight=4;whiteSpace=wrap;overflow=hidden;rotatable=0;points=[[0,0.5],[1,0.5]];portConstraint=eastwest;dropTarget=0;" vertex="1" parent="yacdEGkcFhaqMKAfXrDm-109">
          <mxGeometry y="316" width="200" height="26" as="geometry" />
        </mxCell>
        <mxCell id="yacdEGkcFhaqMKAfXrDm-146" value="&lt;font style=&quot;font-size: 12px;&quot;&gt;backdrop_path&lt;/font&gt;" style="shape=partialRectangle;top=0;left=0;bottom=0;html=1;fillColor=none;align=center;verticalAlign=top;spacingLeft=4;spacingRight=4;whiteSpace=wrap;overflow=hidden;rotatable=0;points=[];portConstraint=eastwest;part=1;" vertex="1" connectable="0" parent="yacdEGkcFhaqMKAfXrDm-145">
          <mxGeometry width="100" height="26" as="geometry" />
        </mxCell>
        <mxCell id="yacdEGkcFhaqMKAfXrDm-169" value="movies_worldcup" style="swimlane;html=1;fontStyle=0;childLayout=stackLayout;horizontal=1;startSize=26;fillColor=#e0e0e0;horizontalStack=0;resizeParent=1;resizeLast=0;collapsible=1;marginBottom=0;swimlaneFillColor=#ffffff;align=center;rounded=0;shadow=0;comic=0;labelBackgroundColor=none;strokeWidth=1;fontFamily=Verdana;fontSize=14" vertex="1" parent="1">
          <mxGeometry x="410" y="410" width="200" height="342" as="geometry">
            <mxRectangle x="120" y="50" width="80" height="30" as="alternateBounds" />
          </mxGeometry>
        </mxCell>
        <mxCell id="yacdEGkcFhaqMKAfXrDm-170" value="id" style="shape=partialRectangle;top=0;left=0;right=0;bottom=1;html=1;align=center;verticalAlign=middle;fillColor=none;spacingLeft=34;spacingRight=4;whiteSpace=wrap;overflow=hidden;rotatable=0;points=[[0,0.5],[1,0.5]];portConstraint=eastwest;dropTarget=0;fontStyle=5;" vertex="1" parent="yacdEGkcFhaqMKAfXrDm-169">
          <mxGeometry y="26" width="200" height="30" as="geometry" />
        </mxCell>
        <mxCell id="yacdEGkcFhaqMKAfXrDm-171" value="PK" style="shape=partialRectangle;top=0;left=0;bottom=0;html=1;fillColor=none;align=center;verticalAlign=middle;spacingLeft=4;spacingRight=4;whiteSpace=wrap;overflow=hidden;rotatable=0;points=[];portConstraint=eastwest;part=1;" vertex="1" connectable="0" parent="yacdEGkcFhaqMKAfXrDm-170">
          <mxGeometry width="100" height="30" as="geometry" />
        </mxCell>
        <mxCell id="yacdEGkcFhaqMKAfXrDm-172" value="Text" style="shape=partialRectangle;top=0;left=0;right=0;bottom=0;html=1;align=center;verticalAlign=top;fillColor=none;spacingLeft=34;spacingRight=4;whiteSpace=wrap;overflow=hidden;rotatable=0;points=[[0,0.5],[1,0.5]];portConstraint=eastwest;dropTarget=0;" vertex="1" parent="yacdEGkcFhaqMKAfXrDm-169">
          <mxGeometry y="56" width="200" height="26" as="geometry" />
        </mxCell>
        <mxCell id="yacdEGkcFhaqMKAfXrDm-173" value="movie_id" style="shape=partialRectangle;top=0;left=0;bottom=0;html=1;fillColor=none;align=center;verticalAlign=top;spacingLeft=4;spacingRight=4;whiteSpace=wrap;overflow=hidden;rotatable=0;points=[];portConstraint=eastwest;part=1;" vertex="1" connectable="0" parent="yacdEGkcFhaqMKAfXrDm-172">
          <mxGeometry width="100" height="26" as="geometry" />
        </mxCell>
        <mxCell id="yacdEGkcFhaqMKAfXrDm-175" value="Text" style="shape=partialRectangle;top=0;left=0;right=0;bottom=0;html=1;align=center;verticalAlign=top;fillColor=none;spacingLeft=34;spacingRight=4;whiteSpace=wrap;overflow=hidden;rotatable=0;points=[[0,0.5],[1,0.5]];portConstraint=eastwest;dropTarget=0;" vertex="1" parent="yacdEGkcFhaqMKAfXrDm-169">
          <mxGeometry y="82" width="200" height="26" as="geometry" />
        </mxCell>
        <mxCell id="yacdEGkcFhaqMKAfXrDm-176" value="title" style="shape=partialRectangle;top=0;left=0;bottom=0;html=1;fillColor=none;align=center;verticalAlign=top;spacingLeft=4;spacingRight=4;whiteSpace=wrap;overflow=hidden;rotatable=0;points=[];portConstraint=eastwest;part=1;" vertex="1" connectable="0" parent="yacdEGkcFhaqMKAfXrDm-175">
          <mxGeometry width="100" height="26" as="geometry" />
        </mxCell>
        <mxCell id="yacdEGkcFhaqMKAfXrDm-177" value="Text" style="shape=partialRectangle;top=0;left=0;right=0;bottom=0;html=1;align=center;verticalAlign=top;fillColor=none;spacingLeft=34;spacingRight=4;whiteSpace=wrap;overflow=hidden;rotatable=0;points=[[0,0.5],[1,0.5]];portConstraint=eastwest;dropTarget=0;" vertex="1" parent="yacdEGkcFhaqMKAfXrDm-169">
          <mxGeometry y="108" width="200" height="26" as="geometry" />
        </mxCell>
        <mxCell id="yacdEGkcFhaqMKAfXrDm-178" value="original_title" style="shape=partialRectangle;top=0;left=0;bottom=0;html=1;fillColor=none;align=center;verticalAlign=top;spacingLeft=4;spacingRight=4;whiteSpace=wrap;overflow=hidden;rotatable=0;points=[];portConstraint=eastwest;part=1;" vertex="1" connectable="0" parent="yacdEGkcFhaqMKAfXrDm-177">
          <mxGeometry width="100" height="26" as="geometry" />
        </mxCell>
        <mxCell id="yacdEGkcFhaqMKAfXrDm-179" value="Text" style="shape=partialRectangle;top=0;left=0;right=0;bottom=0;html=1;align=center;verticalAlign=top;fillColor=none;spacingLeft=34;spacingRight=4;whiteSpace=wrap;overflow=hidden;rotatable=0;points=[[0,0.5],[1,0.5]];portConstraint=eastwest;dropTarget=0;" vertex="1" parent="yacdEGkcFhaqMKAfXrDm-169">
          <mxGeometry y="134" width="200" height="26" as="geometry" />
        </mxCell>
        <mxCell id="yacdEGkcFhaqMKAfXrDm-180" value="overview" style="shape=partialRectangle;top=0;left=0;bottom=0;html=1;fillColor=none;align=center;verticalAlign=top;spacingLeft=4;spacingRight=4;whiteSpace=wrap;overflow=hidden;rotatable=0;points=[];portConstraint=eastwest;part=1;" vertex="1" connectable="0" parent="yacdEGkcFhaqMKAfXrDm-179">
          <mxGeometry width="100" height="26" as="geometry" />
        </mxCell>
        <mxCell id="yacdEGkcFhaqMKAfXrDm-181" value="Text" style="shape=partialRectangle;top=0;left=0;right=0;bottom=0;html=1;align=center;verticalAlign=top;fillColor=none;spacingLeft=34;spacingRight=4;whiteSpace=wrap;overflow=hidden;rotatable=0;points=[[0,0.5],[1,0.5]];portConstraint=eastwest;dropTarget=0;" vertex="1" parent="yacdEGkcFhaqMKAfXrDm-169">
          <mxGeometry y="160" width="200" height="26" as="geometry" />
        </mxCell>
        <mxCell id="yacdEGkcFhaqMKAfXrDm-182" value="poster_path" style="shape=partialRectangle;top=0;left=0;bottom=0;html=1;fillColor=none;align=center;verticalAlign=top;spacingLeft=4;spacingRight=4;whiteSpace=wrap;overflow=hidden;rotatable=0;points=[];portConstraint=eastwest;part=1;" vertex="1" connectable="0" parent="yacdEGkcFhaqMKAfXrDm-181">
          <mxGeometry width="100" height="26" as="geometry" />
        </mxCell>
        <mxCell id="yacdEGkcFhaqMKAfXrDm-183" value="&amp;nbsp; Float" style="shape=partialRectangle;top=0;left=0;right=0;bottom=0;html=1;align=center;verticalAlign=top;fillColor=none;spacingLeft=34;spacingRight=4;whiteSpace=wrap;overflow=hidden;rotatable=0;points=[[0,0.5],[1,0.5]];portConstraint=eastwest;dropTarget=0;" vertex="1" parent="yacdEGkcFhaqMKAfXrDm-169">
          <mxGeometry y="186" width="200" height="26" as="geometry" />
        </mxCell>
        <mxCell id="yacdEGkcFhaqMKAfXrDm-184" value="vote_average" style="shape=partialRectangle;top=0;left=0;bottom=0;html=1;fillColor=none;align=center;verticalAlign=top;spacingLeft=4;spacingRight=4;whiteSpace=wrap;overflow=hidden;rotatable=0;points=[];portConstraint=eastwest;part=1;" vertex="1" connectable="0" parent="yacdEGkcFhaqMKAfXrDm-183">
          <mxGeometry width="100" height="26" as="geometry" />
        </mxCell>
        <mxCell id="yacdEGkcFhaqMKAfXrDm-185" value="&amp;nbsp; &amp;nbsp; &amp;nbsp;Integer" style="shape=partialRectangle;top=0;left=0;right=0;bottom=0;html=1;align=center;verticalAlign=top;fillColor=none;spacingLeft=34;spacingRight=4;whiteSpace=wrap;overflow=hidden;rotatable=0;points=[[0,0.5],[1,0.5]];portConstraint=eastwest;dropTarget=0;" vertex="1" parent="yacdEGkcFhaqMKAfXrDm-169">
          <mxGeometry y="212" width="200" height="26" as="geometry" />
        </mxCell>
        <mxCell id="yacdEGkcFhaqMKAfXrDm-186" value="vote_count" style="shape=partialRectangle;top=0;left=0;bottom=0;html=1;fillColor=none;align=center;verticalAlign=top;spacingLeft=4;spacingRight=4;whiteSpace=wrap;overflow=hidden;rotatable=0;points=[];portConstraint=eastwest;part=1;" vertex="1" connectable="0" parent="yacdEGkcFhaqMKAfXrDm-185">
          <mxGeometry width="100" height="26" as="geometry" />
        </mxCell>
        <mxCell id="yacdEGkcFhaqMKAfXrDm-187" value="Text" style="shape=partialRectangle;top=0;left=0;right=0;bottom=0;html=1;align=center;verticalAlign=top;fillColor=none;spacingLeft=34;spacingRight=4;whiteSpace=wrap;overflow=hidden;rotatable=0;points=[[0,0.5],[1,0.5]];portConstraint=eastwest;dropTarget=0;" vertex="1" parent="yacdEGkcFhaqMKAfXrDm-169">
          <mxGeometry y="238" width="200" height="26" as="geometry" />
        </mxCell>
        <mxCell id="yacdEGkcFhaqMKAfXrDm-188" value="release_date" style="shape=partialRectangle;top=0;left=0;bottom=0;html=1;fillColor=none;align=center;verticalAlign=top;spacingLeft=4;spacingRight=4;whiteSpace=wrap;overflow=hidden;rotatable=0;points=[];portConstraint=eastwest;part=1;" vertex="1" connectable="0" parent="yacdEGkcFhaqMKAfXrDm-187">
          <mxGeometry width="100" height="26" as="geometry" />
        </mxCell>
        <mxCell id="yacdEGkcFhaqMKAfXrDm-189" value="&amp;nbsp; Float" style="shape=partialRectangle;top=0;left=0;right=0;bottom=0;html=1;align=center;verticalAlign=top;fillColor=none;spacingLeft=34;spacingRight=4;whiteSpace=wrap;overflow=hidden;rotatable=0;points=[[0,0.5],[1,0.5]];portConstraint=eastwest;dropTarget=0;" vertex="1" parent="yacdEGkcFhaqMKAfXrDm-169">
          <mxGeometry y="264" width="200" height="26" as="geometry" />
        </mxCell>
        <mxCell id="yacdEGkcFhaqMKAfXrDm-190" value="popularity" style="shape=partialRectangle;top=0;left=0;bottom=0;html=1;fillColor=none;align=center;verticalAlign=top;spacingLeft=4;spacingRight=4;whiteSpace=wrap;overflow=hidden;rotatable=0;points=[];portConstraint=eastwest;part=1;" vertex="1" connectable="0" parent="yacdEGkcFhaqMKAfXrDm-189">
          <mxGeometry width="100" height="26" as="geometry" />
        </mxCell>
        <mxCell id="yacdEGkcFhaqMKAfXrDm-191" value="&amp;nbsp;Bool" style="shape=partialRectangle;top=0;left=0;right=0;bottom=0;html=1;align=center;verticalAlign=top;fillColor=none;spacingLeft=34;spacingRight=4;whiteSpace=wrap;overflow=hidden;rotatable=0;points=[[0,0.5],[1,0.5]];portConstraint=eastwest;dropTarget=0;" vertex="1" parent="yacdEGkcFhaqMKAfXrDm-169">
          <mxGeometry y="290" width="200" height="26" as="geometry" />
        </mxCell>
        <mxCell id="yacdEGkcFhaqMKAfXrDm-192" value="adult" style="shape=partialRectangle;top=0;left=0;bottom=0;html=1;fillColor=none;align=center;verticalAlign=top;spacingLeft=4;spacingRight=4;whiteSpace=wrap;overflow=hidden;rotatable=0;points=[];portConstraint=eastwest;part=1;" vertex="1" connectable="0" parent="yacdEGkcFhaqMKAfXrDm-191">
          <mxGeometry width="100" height="26" as="geometry" />
        </mxCell>
        <mxCell id="yacdEGkcFhaqMKAfXrDm-193" value="Text" style="shape=partialRectangle;top=0;left=0;right=0;bottom=0;html=1;align=center;verticalAlign=top;fillColor=none;spacingLeft=34;spacingRight=4;whiteSpace=wrap;overflow=hidden;rotatable=0;points=[[0,0.5],[1,0.5]];portConstraint=eastwest;dropTarget=0;" vertex="1" parent="yacdEGkcFhaqMKAfXrDm-169">
          <mxGeometry y="316" width="200" height="26" as="geometry" />
        </mxCell>
        <mxCell id="yacdEGkcFhaqMKAfXrDm-194" value="&lt;font style=&quot;font-size: 12px;&quot;&gt;backdrop_path&lt;/font&gt;" style="shape=partialRectangle;top=0;left=0;bottom=0;html=1;fillColor=none;align=center;verticalAlign=top;spacingLeft=4;spacingRight=4;whiteSpace=wrap;overflow=hidden;rotatable=0;points=[];portConstraint=eastwest;part=1;" vertex="1" connectable="0" parent="yacdEGkcFhaqMKAfXrDm-193">
          <mxGeometry width="100" height="26" as="geometry" />
        </mxCell>
        <mxCell id="yacdEGkcFhaqMKAfXrDm-195" value="movies_genre" style="swimlane;html=1;fontStyle=0;childLayout=stackLayout;horizontal=1;startSize=26;fillColor=#e0e0e0;horizontalStack=0;resizeParent=1;resizeLast=0;collapsible=1;marginBottom=0;swimlaneFillColor=#ffffff;align=center;rounded=0;shadow=0;comic=0;labelBackgroundColor=none;strokeWidth=1;fontFamily=Verdana;fontSize=14" vertex="1" parent="1">
          <mxGeometry x="20" y="170" width="200" height="80" as="geometry">
            <mxRectangle x="120" y="50" width="80" height="30" as="alternateBounds" />
          </mxGeometry>
        </mxCell>
        <mxCell id="yacdEGkcFhaqMKAfXrDm-196" value="id" style="shape=partialRectangle;top=0;left=0;right=0;bottom=1;html=1;align=center;verticalAlign=middle;fillColor=none;spacingLeft=34;spacingRight=4;whiteSpace=wrap;overflow=hidden;rotatable=0;points=[[0,0.5],[1,0.5]];portConstraint=eastwest;dropTarget=0;fontStyle=5;" vertex="1" parent="yacdEGkcFhaqMKAfXrDm-195">
          <mxGeometry y="26" width="200" height="30" as="geometry" />
        </mxCell>
        <mxCell id="yacdEGkcFhaqMKAfXrDm-197" value="PK" style="shape=partialRectangle;top=0;left=0;bottom=0;html=1;fillColor=none;align=center;verticalAlign=middle;spacingLeft=4;spacingRight=4;whiteSpace=wrap;overflow=hidden;rotatable=0;points=[];portConstraint=eastwest;part=1;" vertex="1" connectable="0" parent="yacdEGkcFhaqMKAfXrDm-196">
          <mxGeometry width="100" height="30" as="geometry" />
        </mxCell>
        <mxCell id="yacdEGkcFhaqMKAfXrDm-219" value="&amp;nbsp; &amp;nbsp; &amp;nbsp; &amp;nbsp; &amp;nbsp; &amp;nbsp; varchar(50)" style="shape=partialRectangle;top=0;left=0;right=0;bottom=0;html=1;align=center;verticalAlign=top;fillColor=none;spacingLeft=34;spacingRight=4;whiteSpace=wrap;overflow=hidden;rotatable=0;points=[[0,0.5],[1,0.5]];portConstraint=eastwest;dropTarget=0;" vertex="1" parent="yacdEGkcFhaqMKAfXrDm-195">
          <mxGeometry y="56" width="200" height="24" as="geometry" />
        </mxCell>
        <mxCell id="yacdEGkcFhaqMKAfXrDm-220" value="&lt;font style=&quot;font-size: 12px;&quot;&gt;name&lt;/font&gt;" style="shape=partialRectangle;top=0;left=0;bottom=0;html=1;fillColor=none;align=center;verticalAlign=top;spacingLeft=4;spacingRight=4;whiteSpace=wrap;overflow=hidden;rotatable=0;points=[];portConstraint=eastwest;part=1;" vertex="1" connectable="0" parent="yacdEGkcFhaqMKAfXrDm-219">
          <mxGeometry width="100" height="24" as="geometry" />
        </mxCell>
        <mxCell id="yacdEGkcFhaqMKAfXrDm-221" value="movies_movie_genre" style="swimlane;html=1;fontStyle=0;childLayout=stackLayout;horizontal=1;startSize=26;fillColor=#e0e0e0;horizontalStack=0;resizeParent=1;resizeLast=0;collapsible=1;marginBottom=0;swimlaneFillColor=#ffffff;align=center;rounded=0;shadow=0;comic=0;labelBackgroundColor=none;strokeWidth=1;fontFamily=Verdana;fontSize=14" vertex="1" parent="1">
          <mxGeometry x="20" y="315" width="200" height="130" as="geometry">
            <mxRectangle x="120" y="50" width="80" height="30" as="alternateBounds" />
          </mxGeometry>
        </mxCell>
        <mxCell id="yacdEGkcFhaqMKAfXrDm-222" value="id" style="shape=partialRectangle;top=0;left=0;right=0;bottom=1;html=1;align=center;verticalAlign=middle;fillColor=none;spacingLeft=34;spacingRight=4;whiteSpace=wrap;overflow=hidden;rotatable=0;points=[[0,0.5],[1,0.5]];portConstraint=eastwest;dropTarget=0;fontStyle=5;" vertex="1" parent="yacdEGkcFhaqMKAfXrDm-221">
          <mxGeometry y="26" width="200" height="30" as="geometry" />
        </mxCell>
        <mxCell id="yacdEGkcFhaqMKAfXrDm-223" value="PK" style="shape=partialRectangle;top=0;left=0;bottom=0;html=1;fillColor=none;align=center;verticalAlign=middle;spacingLeft=4;spacingRight=4;whiteSpace=wrap;overflow=hidden;rotatable=0;points=[];portConstraint=eastwest;part=1;" vertex="1" connectable="0" parent="yacdEGkcFhaqMKAfXrDm-222">
          <mxGeometry width="100" height="30" as="geometry" />
        </mxCell>
        <mxCell id="yacdEGkcFhaqMKAfXrDm-227" value="&amp;nbsp; &amp;nbsp; &amp;nbsp;integer" style="shape=partialRectangle;top=0;left=0;right=0;bottom=0;html=1;align=center;verticalAlign=top;fillColor=none;spacingLeft=34;spacingRight=4;whiteSpace=wrap;overflow=hidden;rotatable=0;points=[[0,0.5],[1,0.5]];portConstraint=eastwest;dropTarget=0;" vertex="1" parent="yacdEGkcFhaqMKAfXrDm-221">
          <mxGeometry y="56" width="200" height="24" as="geometry" />
        </mxCell>
        <mxCell id="yacdEGkcFhaqMKAfXrDm-228" value="&lt;font style=&quot;font-size: 12px;&quot;&gt;id&lt;/font&gt;" style="shape=partialRectangle;top=0;left=0;bottom=0;html=1;fillColor=none;align=center;verticalAlign=top;spacingLeft=4;spacingRight=4;whiteSpace=wrap;overflow=hidden;rotatable=0;points=[];portConstraint=eastwest;part=1;" vertex="1" connectable="0" parent="yacdEGkcFhaqMKAfXrDm-227">
          <mxGeometry width="100" height="24" as="geometry" />
        </mxCell>
        <mxCell id="yacdEGkcFhaqMKAfXrDm-231" value="&amp;nbsp; &amp;nbsp; &amp;nbsp;integer" style="shape=partialRectangle;top=0;left=0;right=0;bottom=0;html=1;align=center;verticalAlign=top;fillColor=none;spacingLeft=34;spacingRight=4;whiteSpace=wrap;overflow=hidden;rotatable=0;points=[[0,0.5],[1,0.5]];portConstraint=eastwest;dropTarget=0;" vertex="1" parent="yacdEGkcFhaqMKAfXrDm-221">
          <mxGeometry y="80" width="200" height="24" as="geometry" />
        </mxCell>
        <mxCell id="yacdEGkcFhaqMKAfXrDm-232" value="&lt;font style=&quot;font-size: 12px;&quot;&gt;movie_id&lt;/font&gt;" style="shape=partialRectangle;top=0;left=0;bottom=0;html=1;fillColor=none;align=center;verticalAlign=top;spacingLeft=4;spacingRight=4;whiteSpace=wrap;overflow=hidden;rotatable=0;points=[];portConstraint=eastwest;part=1;" vertex="1" connectable="0" parent="yacdEGkcFhaqMKAfXrDm-231">
          <mxGeometry width="100" height="24" as="geometry" />
        </mxCell>
        <mxCell id="yacdEGkcFhaqMKAfXrDm-233" value="&amp;nbsp; &amp;nbsp; &amp;nbsp;integer" style="shape=partialRectangle;top=0;left=0;right=0;bottom=0;html=1;align=center;verticalAlign=top;fillColor=none;spacingLeft=34;spacingRight=4;whiteSpace=wrap;overflow=hidden;rotatable=0;points=[[0,0.5],[1,0.5]];portConstraint=eastwest;dropTarget=0;" vertex="1" parent="yacdEGkcFhaqMKAfXrDm-221">
          <mxGeometry y="104" width="200" height="24" as="geometry" />
        </mxCell>
        <mxCell id="yacdEGkcFhaqMKAfXrDm-234" value="&lt;font style=&quot;font-size: 12px;&quot;&gt;genre_id&lt;/font&gt;" style="shape=partialRectangle;top=0;left=0;bottom=0;html=1;fillColor=none;align=center;verticalAlign=top;spacingLeft=4;spacingRight=4;whiteSpace=wrap;overflow=hidden;rotatable=0;points=[];portConstraint=eastwest;part=1;" vertex="1" connectable="0" parent="yacdEGkcFhaqMKAfXrDm-233">
          <mxGeometry width="100" height="24" as="geometry" />
        </mxCell>
        <mxCell id="yacdEGkcFhaqMKAfXrDm-248" value="movies_comment" style="swimlane;html=1;fontStyle=0;childLayout=stackLayout;horizontal=1;startSize=26;fillColor=#e0e0e0;horizontalStack=0;resizeParent=1;resizeLast=0;collapsible=1;marginBottom=0;swimlaneFillColor=#ffffff;align=center;rounded=0;shadow=0;comic=0;labelBackgroundColor=none;strokeWidth=1;fontFamily=Verdana;fontSize=14" vertex="1" parent="1">
          <mxGeometry x="770" y="50" width="200" height="212" as="geometry">
            <mxRectangle x="120" y="50" width="80" height="30" as="alternateBounds" />
          </mxGeometry>
        </mxCell>
        <mxCell id="yacdEGkcFhaqMKAfXrDm-249" value="id" style="shape=partialRectangle;top=0;left=0;right=0;bottom=1;html=1;align=center;verticalAlign=middle;fillColor=none;spacingLeft=34;spacingRight=4;whiteSpace=wrap;overflow=hidden;rotatable=0;points=[[0,0.5],[1,0.5]];portConstraint=eastwest;dropTarget=0;fontStyle=5;" vertex="1" parent="yacdEGkcFhaqMKAfXrDm-248">
          <mxGeometry y="26" width="200" height="30" as="geometry" />
        </mxCell>
        <mxCell id="yacdEGkcFhaqMKAfXrDm-250" value="PK" style="shape=partialRectangle;top=0;left=0;bottom=0;html=1;fillColor=none;align=center;verticalAlign=middle;spacingLeft=4;spacingRight=4;whiteSpace=wrap;overflow=hidden;rotatable=0;points=[];portConstraint=eastwest;part=1;" vertex="1" connectable="0" parent="yacdEGkcFhaqMKAfXrDm-249">
          <mxGeometry width="100" height="30" as="geometry" />
        </mxCell>
        <mxCell id="yacdEGkcFhaqMKAfXrDm-251" value="Text" style="shape=partialRectangle;top=0;left=0;right=0;bottom=0;html=1;align=center;verticalAlign=top;fillColor=none;spacingLeft=34;spacingRight=4;whiteSpace=wrap;overflow=hidden;rotatable=0;points=[[0,0.5],[1,0.5]];portConstraint=eastwest;dropTarget=0;" vertex="1" parent="yacdEGkcFhaqMKAfXrDm-248">
          <mxGeometry y="56" width="200" height="26" as="geometry" />
        </mxCell>
        <mxCell id="yacdEGkcFhaqMKAfXrDm-252" value="id" style="shape=partialRectangle;top=0;left=0;bottom=0;html=1;fillColor=none;align=center;verticalAlign=top;spacingLeft=4;spacingRight=4;whiteSpace=wrap;overflow=hidden;rotatable=0;points=[];portConstraint=eastwest;part=1;" vertex="1" connectable="0" parent="yacdEGkcFhaqMKAfXrDm-251">
          <mxGeometry width="100" height="26" as="geometry" />
        </mxCell>
        <mxCell id="yacdEGkcFhaqMKAfXrDm-277" value="&amp;nbsp; &amp;nbsp; &amp;nbsp; &amp;nbsp; &amp;nbsp; &amp;nbsp; varchar(50)" style="shape=partialRectangle;top=0;left=0;right=0;bottom=0;html=1;align=center;verticalAlign=top;fillColor=none;spacingLeft=34;spacingRight=4;whiteSpace=wrap;overflow=hidden;rotatable=0;points=[[0,0.5],[1,0.5]];portConstraint=eastwest;dropTarget=0;" vertex="1" parent="yacdEGkcFhaqMKAfXrDm-248">
          <mxGeometry y="82" width="200" height="26" as="geometry" />
        </mxCell>
        <mxCell id="yacdEGkcFhaqMKAfXrDm-278" value="content" style="shape=partialRectangle;top=0;left=0;bottom=0;html=1;fillColor=none;align=center;verticalAlign=top;spacingLeft=4;spacingRight=4;whiteSpace=wrap;overflow=hidden;rotatable=0;points=[];portConstraint=eastwest;part=1;" vertex="1" connectable="0" parent="yacdEGkcFhaqMKAfXrDm-277">
          <mxGeometry width="100" height="26" as="geometry" />
        </mxCell>
        <mxCell id="yacdEGkcFhaqMKAfXrDm-279" value="&amp;nbsp; &amp;nbsp; &amp;nbsp; &amp;nbsp;datetime" style="shape=partialRectangle;top=0;left=0;right=0;bottom=0;html=1;align=center;verticalAlign=top;fillColor=none;spacingLeft=34;spacingRight=4;whiteSpace=wrap;overflow=hidden;rotatable=0;points=[[0,0.5],[1,0.5]];portConstraint=eastwest;dropTarget=0;" vertex="1" parent="yacdEGkcFhaqMKAfXrDm-248">
          <mxGeometry y="108" width="200" height="26" as="geometry" />
        </mxCell>
        <mxCell id="yacdEGkcFhaqMKAfXrDm-280" value="created_at" style="shape=partialRectangle;top=0;left=0;bottom=0;html=1;fillColor=none;align=center;verticalAlign=top;spacingLeft=4;spacingRight=4;whiteSpace=wrap;overflow=hidden;rotatable=0;points=[];portConstraint=eastwest;part=1;" vertex="1" connectable="0" parent="yacdEGkcFhaqMKAfXrDm-279">
          <mxGeometry width="100" height="26" as="geometry" />
        </mxCell>
        <mxCell id="yacdEGkcFhaqMKAfXrDm-281" value="&amp;nbsp; &amp;nbsp; &amp;nbsp; &amp;nbsp;datetime" style="shape=partialRectangle;top=0;left=0;right=0;bottom=0;html=1;align=center;verticalAlign=top;fillColor=none;spacingLeft=34;spacingRight=4;whiteSpace=wrap;overflow=hidden;rotatable=0;points=[[0,0.5],[1,0.5]];portConstraint=eastwest;dropTarget=0;" vertex="1" parent="yacdEGkcFhaqMKAfXrDm-248">
          <mxGeometry y="134" width="200" height="26" as="geometry" />
        </mxCell>
        <mxCell id="yacdEGkcFhaqMKAfXrDm-282" value="updated_at" style="shape=partialRectangle;top=0;left=0;bottom=0;html=1;fillColor=none;align=center;verticalAlign=top;spacingLeft=4;spacingRight=4;whiteSpace=wrap;overflow=hidden;rotatable=0;points=[];portConstraint=eastwest;part=1;" vertex="1" connectable="0" parent="yacdEGkcFhaqMKAfXrDm-281">
          <mxGeometry width="100" height="26" as="geometry" />
        </mxCell>
        <mxCell id="yacdEGkcFhaqMKAfXrDm-285" value="&amp;nbsp; &amp;nbsp; &amp;nbsp;integer" style="shape=partialRectangle;top=0;left=0;right=0;bottom=0;html=1;align=center;verticalAlign=top;fillColor=none;spacingLeft=34;spacingRight=4;whiteSpace=wrap;overflow=hidden;rotatable=0;points=[[0,0.5],[1,0.5]];portConstraint=eastwest;dropTarget=0;" vertex="1" parent="yacdEGkcFhaqMKAfXrDm-248">
          <mxGeometry y="160" width="200" height="26" as="geometry" />
        </mxCell>
        <mxCell id="yacdEGkcFhaqMKAfXrDm-286" value="review_id" style="shape=partialRectangle;top=0;left=0;bottom=0;html=1;fillColor=none;align=center;verticalAlign=top;spacingLeft=4;spacingRight=4;whiteSpace=wrap;overflow=hidden;rotatable=0;points=[];portConstraint=eastwest;part=1;" vertex="1" connectable="0" parent="yacdEGkcFhaqMKAfXrDm-285">
          <mxGeometry width="100" height="26" as="geometry" />
        </mxCell>
        <mxCell id="yacdEGkcFhaqMKAfXrDm-283" value="&amp;nbsp; &amp;nbsp; &amp;nbsp;integer" style="shape=partialRectangle;top=0;left=0;right=0;bottom=0;html=1;align=center;verticalAlign=top;fillColor=none;spacingLeft=34;spacingRight=4;whiteSpace=wrap;overflow=hidden;rotatable=0;points=[[0,0.5],[1,0.5]];portConstraint=eastwest;dropTarget=0;" vertex="1" parent="yacdEGkcFhaqMKAfXrDm-248">
          <mxGeometry y="186" width="200" height="26" as="geometry" />
        </mxCell>
        <mxCell id="yacdEGkcFhaqMKAfXrDm-284" value="user_id" style="shape=partialRectangle;top=0;left=0;bottom=0;html=1;fillColor=none;align=center;verticalAlign=top;spacingLeft=4;spacingRight=4;whiteSpace=wrap;overflow=hidden;rotatable=0;points=[];portConstraint=eastwest;part=1;" vertex="1" connectable="0" parent="yacdEGkcFhaqMKAfXrDm-283">
          <mxGeometry width="100" height="26" as="geometry" />
        </mxCell>
        <mxCell id="yacdEGkcFhaqMKAfXrDm-273" value="" style="fontSize=12;html=1;endArrow=ERzeroToMany;endFill=1;rounded=0;entryX=0.5;entryY=0;entryDx=0;entryDy=0;" edge="1" parent="1" target="yacdEGkcFhaqMKAfXrDm-221">
          <mxGeometry width="100" height="100" relative="1" as="geometry">
            <mxPoint x="120" y="250" as="sourcePoint" />
            <mxPoint x="100" y="380" as="targetPoint" />
          </mxGeometry>
        </mxCell>
        <mxCell id="yacdEGkcFhaqMKAfXrDm-276" value="" style="fontSize=12;html=1;endArrow=ERzeroToMany;endFill=1;rounded=0;edgeStyle=orthogonalEdgeStyle;exitX=1;exitY=0.5;exitDx=0;exitDy=0;" edge="1" parent="1">
          <mxGeometry width="100" height="100" relative="1" as="geometry">
            <mxPoint x="410" y="460" as="sourcePoint" />
            <mxPoint x="220" y="410" as="targetPoint" />
            <Array as="points">
              <mxPoint x="410" y="460" />
              <mxPoint x="310" y="460" />
              <mxPoint x="310" y="410" />
            </Array>
          </mxGeometry>
        </mxCell>
        <mxCell id="yacdEGkcFhaqMKAfXrDm-275" value="" style="fontSize=12;html=1;endArrow=ERzeroToMany;endFill=1;rounded=0;edgeStyle=orthogonalEdgeStyle;exitX=0;exitY=0.5;exitDx=0;exitDy=0;entryX=1;entryY=0.5;entryDx=0;entryDy=0;" edge="1" parent="1" source="yacdEGkcFhaqMKAfXrDm-165" target="yacdEGkcFhaqMKAfXrDm-222">
          <mxGeometry width="100" height="100" relative="1" as="geometry">
            <mxPoint x="340" y="260" as="sourcePoint" />
            <mxPoint x="240" y="390" as="targetPoint" />
            <Array as="points">
              <mxPoint x="341" y="239" />
              <mxPoint x="341" y="356" />
            </Array>
          </mxGeometry>
        </mxCell>
        <mxCell id="yacdEGkcFhaqMKAfXrDm-287" value="accounts_user" style="swimlane;html=1;fontStyle=0;childLayout=stackLayout;horizontal=1;startSize=26;fillColor=#e0e0e0;horizontalStack=0;resizeParent=1;resizeLast=0;collapsible=1;marginBottom=0;swimlaneFillColor=#ffffff;align=center;rounded=0;shadow=0;comic=0;labelBackgroundColor=none;strokeWidth=1;fontFamily=Verdana;fontSize=14" vertex="1" parent="1">
          <mxGeometry x="1170" y="280" width="200" height="342" as="geometry">
            <mxRectangle x="120" y="50" width="80" height="30" as="alternateBounds" />
          </mxGeometry>
        </mxCell>
        <mxCell id="yacdEGkcFhaqMKAfXrDm-288" value="id" style="shape=partialRectangle;top=0;left=0;right=0;bottom=1;html=1;align=center;verticalAlign=middle;fillColor=none;spacingLeft=34;spacingRight=4;whiteSpace=wrap;overflow=hidden;rotatable=0;points=[[0,0.5],[1,0.5]];portConstraint=eastwest;dropTarget=0;fontStyle=5;" vertex="1" parent="yacdEGkcFhaqMKAfXrDm-287">
          <mxGeometry y="26" width="200" height="30" as="geometry" />
        </mxCell>
        <mxCell id="yacdEGkcFhaqMKAfXrDm-289" value="PK" style="shape=partialRectangle;top=0;left=0;bottom=0;html=1;fillColor=none;align=center;verticalAlign=middle;spacingLeft=4;spacingRight=4;whiteSpace=wrap;overflow=hidden;rotatable=0;points=[];portConstraint=eastwest;part=1;" vertex="1" connectable="0" parent="yacdEGkcFhaqMKAfXrDm-288">
          <mxGeometry width="100" height="30" as="geometry" />
        </mxCell>
        <mxCell id="yacdEGkcFhaqMKAfXrDm-290" value="&amp;nbsp; &amp;nbsp; &amp;nbsp; integer" style="shape=partialRectangle;top=0;left=0;right=0;bottom=0;html=1;align=center;verticalAlign=top;fillColor=none;spacingLeft=34;spacingRight=4;whiteSpace=wrap;overflow=hidden;rotatable=0;points=[[0,0.5],[1,0.5]];portConstraint=eastwest;dropTarget=0;" vertex="1" parent="yacdEGkcFhaqMKAfXrDm-287">
          <mxGeometry y="56" width="200" height="26" as="geometry" />
        </mxCell>
        <mxCell id="yacdEGkcFhaqMKAfXrDm-291" value="id" style="shape=partialRectangle;top=0;left=0;bottom=0;html=1;fillColor=none;align=center;verticalAlign=top;spacingLeft=4;spacingRight=4;whiteSpace=wrap;overflow=hidden;rotatable=0;points=[];portConstraint=eastwest;part=1;" vertex="1" connectable="0" parent="yacdEGkcFhaqMKAfXrDm-290">
          <mxGeometry width="100" height="26" as="geometry" />
        </mxCell>
        <mxCell id="yacdEGkcFhaqMKAfXrDm-292" value="&amp;nbsp; &amp;nbsp; &amp;nbsp; &amp;nbsp; &amp;nbsp; &amp;nbsp; &amp;nbsp;varchar(50)" style="shape=partialRectangle;top=0;left=0;right=0;bottom=0;html=1;align=center;verticalAlign=top;fillColor=none;spacingLeft=34;spacingRight=4;whiteSpace=wrap;overflow=hidden;rotatable=0;points=[[0,0.5],[1,0.5]];portConstraint=eastwest;dropTarget=0;" vertex="1" parent="yacdEGkcFhaqMKAfXrDm-287">
          <mxGeometry y="82" width="200" height="26" as="geometry" />
        </mxCell>
        <mxCell id="yacdEGkcFhaqMKAfXrDm-293" value="password" style="shape=partialRectangle;top=0;left=0;bottom=0;html=1;fillColor=none;align=center;verticalAlign=top;spacingLeft=4;spacingRight=4;whiteSpace=wrap;overflow=hidden;rotatable=0;points=[];portConstraint=eastwest;part=1;" vertex="1" connectable="0" parent="yacdEGkcFhaqMKAfXrDm-292">
          <mxGeometry width="100" height="26" as="geometry" />
        </mxCell>
        <mxCell id="yacdEGkcFhaqMKAfXrDm-294" value="&amp;nbsp; &amp;nbsp; &amp;nbsp; &amp;nbsp; datetime" style="shape=partialRectangle;top=0;left=0;right=0;bottom=0;html=1;align=center;verticalAlign=top;fillColor=none;spacingLeft=34;spacingRight=4;whiteSpace=wrap;overflow=hidden;rotatable=0;points=[[0,0.5],[1,0.5]];portConstraint=eastwest;dropTarget=0;" vertex="1" parent="yacdEGkcFhaqMKAfXrDm-287">
          <mxGeometry y="108" width="200" height="26" as="geometry" />
        </mxCell>
        <mxCell id="yacdEGkcFhaqMKAfXrDm-295" value="last_login" style="shape=partialRectangle;top=0;left=0;bottom=0;html=1;fillColor=none;align=center;verticalAlign=top;spacingLeft=4;spacingRight=4;whiteSpace=wrap;overflow=hidden;rotatable=0;points=[];portConstraint=eastwest;part=1;" vertex="1" connectable="0" parent="yacdEGkcFhaqMKAfXrDm-294">
          <mxGeometry width="100" height="26" as="geometry" />
        </mxCell>
        <mxCell id="yacdEGkcFhaqMKAfXrDm-296" value="&amp;nbsp;bool" style="shape=partialRectangle;top=0;left=0;right=0;bottom=0;html=1;align=center;verticalAlign=top;fillColor=none;spacingLeft=34;spacingRight=4;whiteSpace=wrap;overflow=hidden;rotatable=0;points=[[0,0.5],[1,0.5]];portConstraint=eastwest;dropTarget=0;" vertex="1" parent="yacdEGkcFhaqMKAfXrDm-287">
          <mxGeometry y="134" width="200" height="26" as="geometry" />
        </mxCell>
        <mxCell id="yacdEGkcFhaqMKAfXrDm-297" value="is_superuser" style="shape=partialRectangle;top=0;left=0;bottom=0;html=1;fillColor=none;align=center;verticalAlign=top;spacingLeft=4;spacingRight=4;whiteSpace=wrap;overflow=hidden;rotatable=0;points=[];portConstraint=eastwest;part=1;" vertex="1" connectable="0" parent="yacdEGkcFhaqMKAfXrDm-296">
          <mxGeometry width="100" height="26" as="geometry" />
        </mxCell>
        <mxCell id="yacdEGkcFhaqMKAfXrDm-298" value="&amp;nbsp; &amp;nbsp; &amp;nbsp; &amp;nbsp; &amp;nbsp; &amp;nbsp; &amp;nbsp; varchar(150)" style="shape=partialRectangle;top=0;left=0;right=0;bottom=0;html=1;align=center;verticalAlign=top;fillColor=none;spacingLeft=34;spacingRight=4;whiteSpace=wrap;overflow=hidden;rotatable=0;points=[[0,0.5],[1,0.5]];portConstraint=eastwest;dropTarget=0;" vertex="1" parent="yacdEGkcFhaqMKAfXrDm-287">
          <mxGeometry y="160" width="200" height="26" as="geometry" />
        </mxCell>
        <mxCell id="yacdEGkcFhaqMKAfXrDm-299" value="username" style="shape=partialRectangle;top=0;left=0;bottom=0;html=1;fillColor=none;align=center;verticalAlign=top;spacingLeft=4;spacingRight=4;whiteSpace=wrap;overflow=hidden;rotatable=0;points=[];portConstraint=eastwest;part=1;" vertex="1" connectable="0" parent="yacdEGkcFhaqMKAfXrDm-298">
          <mxGeometry width="100" height="26" as="geometry" />
        </mxCell>
        <mxCell id="yacdEGkcFhaqMKAfXrDm-300" value="&amp;nbsp; &amp;nbsp; &amp;nbsp; &amp;nbsp; &amp;nbsp; &amp;nbsp; &amp;nbsp; varchar(150)" style="shape=partialRectangle;top=0;left=0;right=0;bottom=0;html=1;align=center;verticalAlign=top;fillColor=none;spacingLeft=34;spacingRight=4;whiteSpace=wrap;overflow=hidden;rotatable=0;points=[[0,0.5],[1,0.5]];portConstraint=eastwest;dropTarget=0;" vertex="1" parent="yacdEGkcFhaqMKAfXrDm-287">
          <mxGeometry y="186" width="200" height="26" as="geometry" />
        </mxCell>
        <mxCell id="yacdEGkcFhaqMKAfXrDm-301" value="first_name" style="shape=partialRectangle;top=0;left=0;bottom=0;html=1;fillColor=none;align=center;verticalAlign=top;spacingLeft=4;spacingRight=4;whiteSpace=wrap;overflow=hidden;rotatable=0;points=[];portConstraint=eastwest;part=1;" vertex="1" connectable="0" parent="yacdEGkcFhaqMKAfXrDm-300">
          <mxGeometry width="100" height="26" as="geometry" />
        </mxCell>
        <mxCell id="yacdEGkcFhaqMKAfXrDm-304" value="&amp;nbsp; &amp;nbsp; &amp;nbsp; &amp;nbsp; &amp;nbsp; &amp;nbsp; &amp;nbsp; varchar(150)" style="shape=partialRectangle;top=0;left=0;right=0;bottom=0;html=1;align=center;verticalAlign=top;fillColor=none;spacingLeft=34;spacingRight=4;whiteSpace=wrap;overflow=hidden;rotatable=0;points=[[0,0.5],[1,0.5]];portConstraint=eastwest;dropTarget=0;" vertex="1" parent="yacdEGkcFhaqMKAfXrDm-287">
          <mxGeometry y="212" width="200" height="26" as="geometry" />
        </mxCell>
        <mxCell id="yacdEGkcFhaqMKAfXrDm-305" value="last_name" style="shape=partialRectangle;top=0;left=0;bottom=0;html=1;fillColor=none;align=center;verticalAlign=top;spacingLeft=4;spacingRight=4;whiteSpace=wrap;overflow=hidden;rotatable=0;points=[];portConstraint=eastwest;part=1;" vertex="1" connectable="0" parent="yacdEGkcFhaqMKAfXrDm-304">
          <mxGeometry width="100" height="26" as="geometry" />
        </mxCell>
        <mxCell id="yacdEGkcFhaqMKAfXrDm-302" value="&amp;nbsp; &amp;nbsp; &amp;nbsp; &amp;nbsp; &amp;nbsp; &amp;nbsp; &amp;nbsp; varchar(254)" style="shape=partialRectangle;top=0;left=0;right=0;bottom=0;html=1;align=center;verticalAlign=top;fillColor=none;spacingLeft=34;spacingRight=4;whiteSpace=wrap;overflow=hidden;rotatable=0;points=[[0,0.5],[1,0.5]];portConstraint=eastwest;dropTarget=0;" vertex="1" parent="yacdEGkcFhaqMKAfXrDm-287">
          <mxGeometry y="238" width="200" height="26" as="geometry" />
        </mxCell>
        <mxCell id="yacdEGkcFhaqMKAfXrDm-303" value="email" style="shape=partialRectangle;top=0;left=0;bottom=0;html=1;fillColor=none;align=center;verticalAlign=top;spacingLeft=4;spacingRight=4;whiteSpace=wrap;overflow=hidden;rotatable=0;points=[];portConstraint=eastwest;part=1;" vertex="1" connectable="0" parent="yacdEGkcFhaqMKAfXrDm-302">
          <mxGeometry width="100" height="26" as="geometry" />
        </mxCell>
        <mxCell id="yacdEGkcFhaqMKAfXrDm-306" value="&amp;nbsp;bool" style="shape=partialRectangle;top=0;left=0;right=0;bottom=0;html=1;align=center;verticalAlign=top;fillColor=none;spacingLeft=34;spacingRight=4;whiteSpace=wrap;overflow=hidden;rotatable=0;points=[[0,0.5],[1,0.5]];portConstraint=eastwest;dropTarget=0;" vertex="1" parent="yacdEGkcFhaqMKAfXrDm-287">
          <mxGeometry y="264" width="200" height="26" as="geometry" />
        </mxCell>
        <mxCell id="yacdEGkcFhaqMKAfXrDm-307" value="is_staff" style="shape=partialRectangle;top=0;left=0;bottom=0;html=1;fillColor=none;align=center;verticalAlign=top;spacingLeft=4;spacingRight=4;whiteSpace=wrap;overflow=hidden;rotatable=0;points=[];portConstraint=eastwest;part=1;" vertex="1" connectable="0" parent="yacdEGkcFhaqMKAfXrDm-306">
          <mxGeometry width="100" height="26" as="geometry" />
        </mxCell>
        <mxCell id="yacdEGkcFhaqMKAfXrDm-310" value="&amp;nbsp;bool" style="shape=partialRectangle;top=0;left=0;right=0;bottom=0;html=1;align=center;verticalAlign=top;fillColor=none;spacingLeft=34;spacingRight=4;whiteSpace=wrap;overflow=hidden;rotatable=0;points=[[0,0.5],[1,0.5]];portConstraint=eastwest;dropTarget=0;" vertex="1" parent="yacdEGkcFhaqMKAfXrDm-287">
          <mxGeometry y="290" width="200" height="26" as="geometry" />
        </mxCell>
        <mxCell id="yacdEGkcFhaqMKAfXrDm-311" value="is_active" style="shape=partialRectangle;top=0;left=0;bottom=0;html=1;fillColor=none;align=center;verticalAlign=top;spacingLeft=4;spacingRight=4;whiteSpace=wrap;overflow=hidden;rotatable=0;points=[];portConstraint=eastwest;part=1;" vertex="1" connectable="0" parent="yacdEGkcFhaqMKAfXrDm-310">
          <mxGeometry width="100" height="26" as="geometry" />
        </mxCell>
        <mxCell id="yacdEGkcFhaqMKAfXrDm-308" value="&amp;nbsp; &amp;nbsp; &amp;nbsp; &amp;nbsp;datetime" style="shape=partialRectangle;top=0;left=0;right=0;bottom=0;html=1;align=center;verticalAlign=top;fillColor=none;spacingLeft=34;spacingRight=4;whiteSpace=wrap;overflow=hidden;rotatable=0;points=[[0,0.5],[1,0.5]];portConstraint=eastwest;dropTarget=0;" vertex="1" parent="yacdEGkcFhaqMKAfXrDm-287">
          <mxGeometry y="316" width="200" height="26" as="geometry" />
        </mxCell>
        <mxCell id="yacdEGkcFhaqMKAfXrDm-309" value="date_joined" style="shape=partialRectangle;top=0;left=0;bottom=0;html=1;fillColor=none;align=center;verticalAlign=top;spacingLeft=4;spacingRight=4;whiteSpace=wrap;overflow=hidden;rotatable=0;points=[];portConstraint=eastwest;part=1;" vertex="1" connectable="0" parent="yacdEGkcFhaqMKAfXrDm-308">
          <mxGeometry width="100" height="26" as="geometry" />
        </mxCell>
        <mxCell id="yacdEGkcFhaqMKAfXrDm-312" value="movies_movie_like_users" style="swimlane;html=1;fontStyle=0;childLayout=stackLayout;horizontal=1;startSize=26;fillColor=#e0e0e0;horizontalStack=0;resizeParent=1;resizeLast=0;collapsible=1;marginBottom=0;swimlaneFillColor=#ffffff;align=center;rounded=0;shadow=0;comic=0;labelBackgroundColor=none;strokeWidth=1;fontFamily=Verdana;fontSize=14" vertex="1" parent="1">
          <mxGeometry x="1040" y="70" width="200" height="130" as="geometry">
            <mxRectangle x="120" y="50" width="80" height="30" as="alternateBounds" />
          </mxGeometry>
        </mxCell>
        <mxCell id="yacdEGkcFhaqMKAfXrDm-313" value="id" style="shape=partialRectangle;top=0;left=0;right=0;bottom=1;html=1;align=center;verticalAlign=middle;fillColor=none;spacingLeft=34;spacingRight=4;whiteSpace=wrap;overflow=hidden;rotatable=0;points=[[0,0.5],[1,0.5]];portConstraint=eastwest;dropTarget=0;fontStyle=5;" vertex="1" parent="yacdEGkcFhaqMKAfXrDm-312">
          <mxGeometry y="26" width="200" height="30" as="geometry" />
        </mxCell>
        <mxCell id="yacdEGkcFhaqMKAfXrDm-314" value="PK" style="shape=partialRectangle;top=0;left=0;bottom=0;html=1;fillColor=none;align=center;verticalAlign=middle;spacingLeft=4;spacingRight=4;whiteSpace=wrap;overflow=hidden;rotatable=0;points=[];portConstraint=eastwest;part=1;" vertex="1" connectable="0" parent="yacdEGkcFhaqMKAfXrDm-313">
          <mxGeometry width="100" height="30" as="geometry" />
        </mxCell>
        <mxCell id="yacdEGkcFhaqMKAfXrDm-315" value="&amp;nbsp; &amp;nbsp; &amp;nbsp;integer" style="shape=partialRectangle;top=0;left=0;right=0;bottom=0;html=1;align=center;verticalAlign=top;fillColor=none;spacingLeft=34;spacingRight=4;whiteSpace=wrap;overflow=hidden;rotatable=0;points=[[0,0.5],[1,0.5]];portConstraint=eastwest;dropTarget=0;" vertex="1" parent="yacdEGkcFhaqMKAfXrDm-312">
          <mxGeometry y="56" width="200" height="24" as="geometry" />
        </mxCell>
        <mxCell id="yacdEGkcFhaqMKAfXrDm-316" value="&lt;font style=&quot;font-size: 12px;&quot;&gt;id&lt;/font&gt;" style="shape=partialRectangle;top=0;left=0;bottom=0;html=1;fillColor=none;align=center;verticalAlign=top;spacingLeft=4;spacingRight=4;whiteSpace=wrap;overflow=hidden;rotatable=0;points=[];portConstraint=eastwest;part=1;" vertex="1" connectable="0" parent="yacdEGkcFhaqMKAfXrDm-315">
          <mxGeometry width="100" height="24" as="geometry" />
        </mxCell>
        <mxCell id="yacdEGkcFhaqMKAfXrDm-317" value="&amp;nbsp; &amp;nbsp; &amp;nbsp;integer" style="shape=partialRectangle;top=0;left=0;right=0;bottom=0;html=1;align=center;verticalAlign=top;fillColor=none;spacingLeft=34;spacingRight=4;whiteSpace=wrap;overflow=hidden;rotatable=0;points=[[0,0.5],[1,0.5]];portConstraint=eastwest;dropTarget=0;" vertex="1" parent="yacdEGkcFhaqMKAfXrDm-312">
          <mxGeometry y="80" width="200" height="24" as="geometry" />
        </mxCell>
        <mxCell id="yacdEGkcFhaqMKAfXrDm-318" value="&lt;font style=&quot;font-size: 12px;&quot;&gt;movie_id&lt;/font&gt;" style="shape=partialRectangle;top=0;left=0;bottom=0;html=1;fillColor=none;align=center;verticalAlign=top;spacingLeft=4;spacingRight=4;whiteSpace=wrap;overflow=hidden;rotatable=0;points=[];portConstraint=eastwest;part=1;" vertex="1" connectable="0" parent="yacdEGkcFhaqMKAfXrDm-317">
          <mxGeometry width="100" height="24" as="geometry" />
        </mxCell>
        <mxCell id="yacdEGkcFhaqMKAfXrDm-319" value="&amp;nbsp; &amp;nbsp; &amp;nbsp;integer" style="shape=partialRectangle;top=0;left=0;right=0;bottom=0;html=1;align=center;verticalAlign=top;fillColor=none;spacingLeft=34;spacingRight=4;whiteSpace=wrap;overflow=hidden;rotatable=0;points=[[0,0.5],[1,0.5]];portConstraint=eastwest;dropTarget=0;" vertex="1" parent="yacdEGkcFhaqMKAfXrDm-312">
          <mxGeometry y="104" width="200" height="24" as="geometry" />
        </mxCell>
        <mxCell id="yacdEGkcFhaqMKAfXrDm-320" value="&lt;font style=&quot;font-size: 12px;&quot;&gt;user_id&lt;/font&gt;" style="shape=partialRectangle;top=0;left=0;bottom=0;html=1;fillColor=none;align=center;verticalAlign=top;spacingLeft=4;spacingRight=4;whiteSpace=wrap;overflow=hidden;rotatable=0;points=[];portConstraint=eastwest;part=1;" vertex="1" connectable="0" parent="yacdEGkcFhaqMKAfXrDm-319">
          <mxGeometry width="100" height="24" as="geometry" />
        </mxCell>
        <mxCell id="yacdEGkcFhaqMKAfXrDm-321" value="movies_review" style="swimlane;html=1;fontStyle=0;childLayout=stackLayout;horizontal=1;startSize=26;fillColor=#e0e0e0;horizontalStack=0;resizeParent=1;resizeLast=0;collapsible=1;marginBottom=0;swimlaneFillColor=#ffffff;align=center;rounded=0;shadow=0;comic=0;labelBackgroundColor=none;strokeWidth=1;fontFamily=Verdana;fontSize=14" vertex="1" parent="1">
          <mxGeometry x="770" y="390" width="200" height="238" as="geometry">
            <mxRectangle x="120" y="50" width="80" height="30" as="alternateBounds" />
          </mxGeometry>
        </mxCell>
        <mxCell id="yacdEGkcFhaqMKAfXrDm-322" value="id" style="shape=partialRectangle;top=0;left=0;right=0;bottom=1;html=1;align=center;verticalAlign=middle;fillColor=none;spacingLeft=34;spacingRight=4;whiteSpace=wrap;overflow=hidden;rotatable=0;points=[[0,0.5],[1,0.5]];portConstraint=eastwest;dropTarget=0;fontStyle=5;" vertex="1" parent="yacdEGkcFhaqMKAfXrDm-321">
          <mxGeometry y="26" width="200" height="30" as="geometry" />
        </mxCell>
        <mxCell id="yacdEGkcFhaqMKAfXrDm-323" value="PK" style="shape=partialRectangle;top=0;left=0;bottom=0;html=1;fillColor=none;align=center;verticalAlign=middle;spacingLeft=4;spacingRight=4;whiteSpace=wrap;overflow=hidden;rotatable=0;points=[];portConstraint=eastwest;part=1;" vertex="1" connectable="0" parent="yacdEGkcFhaqMKAfXrDm-322">
          <mxGeometry width="100" height="30" as="geometry" />
        </mxCell>
        <mxCell id="yacdEGkcFhaqMKAfXrDm-324" value="Text" style="shape=partialRectangle;top=0;left=0;right=0;bottom=0;html=1;align=center;verticalAlign=top;fillColor=none;spacingLeft=34;spacingRight=4;whiteSpace=wrap;overflow=hidden;rotatable=0;points=[[0,0.5],[1,0.5]];portConstraint=eastwest;dropTarget=0;" vertex="1" parent="yacdEGkcFhaqMKAfXrDm-321">
          <mxGeometry y="56" width="200" height="26" as="geometry" />
        </mxCell>
        <mxCell id="yacdEGkcFhaqMKAfXrDm-325" value="id" style="shape=partialRectangle;top=0;left=0;bottom=0;html=1;fillColor=none;align=center;verticalAlign=top;spacingLeft=4;spacingRight=4;whiteSpace=wrap;overflow=hidden;rotatable=0;points=[];portConstraint=eastwest;part=1;" vertex="1" connectable="0" parent="yacdEGkcFhaqMKAfXrDm-324">
          <mxGeometry width="100" height="26" as="geometry" />
        </mxCell>
        <mxCell id="yacdEGkcFhaqMKAfXrDm-326" value="&amp;nbsp; &amp;nbsp; &amp;nbsp; &amp;nbsp; &amp;nbsp; &amp;nbsp; varchar(50)" style="shape=partialRectangle;top=0;left=0;right=0;bottom=0;html=1;align=center;verticalAlign=top;fillColor=none;spacingLeft=34;spacingRight=4;whiteSpace=wrap;overflow=hidden;rotatable=0;points=[[0,0.5],[1,0.5]];portConstraint=eastwest;dropTarget=0;" vertex="1" parent="yacdEGkcFhaqMKAfXrDm-321">
          <mxGeometry y="82" width="200" height="26" as="geometry" />
        </mxCell>
        <mxCell id="yacdEGkcFhaqMKAfXrDm-327" value="title" style="shape=partialRectangle;top=0;left=0;bottom=0;html=1;fillColor=none;align=center;verticalAlign=top;spacingLeft=4;spacingRight=4;whiteSpace=wrap;overflow=hidden;rotatable=0;points=[];portConstraint=eastwest;part=1;" vertex="1" connectable="0" parent="yacdEGkcFhaqMKAfXrDm-326">
          <mxGeometry width="100" height="26" as="geometry" />
        </mxCell>
        <mxCell id="yacdEGkcFhaqMKAfXrDm-334" value="Text" style="shape=partialRectangle;top=0;left=0;right=0;bottom=0;html=1;align=center;verticalAlign=top;fillColor=none;spacingLeft=34;spacingRight=4;whiteSpace=wrap;overflow=hidden;rotatable=0;points=[[0,0.5],[1,0.5]];portConstraint=eastwest;dropTarget=0;" vertex="1" parent="yacdEGkcFhaqMKAfXrDm-321">
          <mxGeometry y="108" width="200" height="26" as="geometry" />
        </mxCell>
        <mxCell id="yacdEGkcFhaqMKAfXrDm-335" value="content" style="shape=partialRectangle;top=0;left=0;bottom=0;html=1;fillColor=none;align=center;verticalAlign=top;spacingLeft=4;spacingRight=4;whiteSpace=wrap;overflow=hidden;rotatable=0;points=[];portConstraint=eastwest;part=1;" vertex="1" connectable="0" parent="yacdEGkcFhaqMKAfXrDm-334">
          <mxGeometry width="100" height="26" as="geometry" />
        </mxCell>
        <mxCell id="yacdEGkcFhaqMKAfXrDm-328" value="&amp;nbsp; &amp;nbsp; &amp;nbsp; &amp;nbsp;datetime" style="shape=partialRectangle;top=0;left=0;right=0;bottom=0;html=1;align=center;verticalAlign=top;fillColor=none;spacingLeft=34;spacingRight=4;whiteSpace=wrap;overflow=hidden;rotatable=0;points=[[0,0.5],[1,0.5]];portConstraint=eastwest;dropTarget=0;" vertex="1" parent="yacdEGkcFhaqMKAfXrDm-321">
          <mxGeometry y="134" width="200" height="26" as="geometry" />
        </mxCell>
        <mxCell id="yacdEGkcFhaqMKAfXrDm-329" value="created_at" style="shape=partialRectangle;top=0;left=0;bottom=0;html=1;fillColor=none;align=center;verticalAlign=top;spacingLeft=4;spacingRight=4;whiteSpace=wrap;overflow=hidden;rotatable=0;points=[];portConstraint=eastwest;part=1;" vertex="1" connectable="0" parent="yacdEGkcFhaqMKAfXrDm-328">
          <mxGeometry width="100" height="26" as="geometry" />
        </mxCell>
        <mxCell id="yacdEGkcFhaqMKAfXrDm-330" value="&amp;nbsp; &amp;nbsp; &amp;nbsp; &amp;nbsp;datetime" style="shape=partialRectangle;top=0;left=0;right=0;bottom=0;html=1;align=center;verticalAlign=top;fillColor=none;spacingLeft=34;spacingRight=4;whiteSpace=wrap;overflow=hidden;rotatable=0;points=[[0,0.5],[1,0.5]];portConstraint=eastwest;dropTarget=0;" vertex="1" parent="yacdEGkcFhaqMKAfXrDm-321">
          <mxGeometry y="160" width="200" height="26" as="geometry" />
        </mxCell>
        <mxCell id="yacdEGkcFhaqMKAfXrDm-331" value="updated_at" style="shape=partialRectangle;top=0;left=0;bottom=0;html=1;fillColor=none;align=center;verticalAlign=top;spacingLeft=4;spacingRight=4;whiteSpace=wrap;overflow=hidden;rotatable=0;points=[];portConstraint=eastwest;part=1;" vertex="1" connectable="0" parent="yacdEGkcFhaqMKAfXrDm-330">
          <mxGeometry width="100" height="26" as="geometry" />
        </mxCell>
        <mxCell id="yacdEGkcFhaqMKAfXrDm-336" value="&amp;nbsp; &amp;nbsp; &amp;nbsp;integer" style="shape=partialRectangle;top=0;left=0;right=0;bottom=0;html=1;align=center;verticalAlign=top;fillColor=none;spacingLeft=34;spacingRight=4;whiteSpace=wrap;overflow=hidden;rotatable=0;points=[[0,0.5],[1,0.5]];portConstraint=eastwest;dropTarget=0;" vertex="1" parent="yacdEGkcFhaqMKAfXrDm-321">
          <mxGeometry y="186" width="200" height="26" as="geometry" />
        </mxCell>
        <mxCell id="yacdEGkcFhaqMKAfXrDm-337" value="movie_id" style="shape=partialRectangle;top=0;left=0;bottom=0;html=1;fillColor=none;align=center;verticalAlign=top;spacingLeft=4;spacingRight=4;whiteSpace=wrap;overflow=hidden;rotatable=0;points=[];portConstraint=eastwest;part=1;" vertex="1" connectable="0" parent="yacdEGkcFhaqMKAfXrDm-336">
          <mxGeometry width="100" height="26" as="geometry" />
        </mxCell>
        <mxCell id="yacdEGkcFhaqMKAfXrDm-332" value="&amp;nbsp; &amp;nbsp; &amp;nbsp;integer" style="shape=partialRectangle;top=0;left=0;right=0;bottom=0;html=1;align=center;verticalAlign=top;fillColor=none;spacingLeft=34;spacingRight=4;whiteSpace=wrap;overflow=hidden;rotatable=0;points=[[0,0.5],[1,0.5]];portConstraint=eastwest;dropTarget=0;" vertex="1" parent="yacdEGkcFhaqMKAfXrDm-321">
          <mxGeometry y="212" width="200" height="26" as="geometry" />
        </mxCell>
        <mxCell id="yacdEGkcFhaqMKAfXrDm-333" value="user_id" style="shape=partialRectangle;top=0;left=0;bottom=0;html=1;fillColor=none;align=center;verticalAlign=top;spacingLeft=4;spacingRight=4;whiteSpace=wrap;overflow=hidden;rotatable=0;points=[];portConstraint=eastwest;part=1;" vertex="1" connectable="0" parent="yacdEGkcFhaqMKAfXrDm-332">
          <mxGeometry width="100" height="26" as="geometry" />
        </mxCell>
        <mxCell id="yacdEGkcFhaqMKAfXrDm-338" value="" style="fontSize=12;html=1;endArrow=ERzeroToMany;endFill=1;rounded=0;edgeStyle=orthogonalEdgeStyle;exitX=0;exitY=0.5;exitDx=0;exitDy=0;entryX=0;entryY=0.5;entryDx=0;entryDy=0;" edge="1" parent="1" target="yacdEGkcFhaqMKAfXrDm-324">
          <mxGeometry width="100" height="100" relative="1" as="geometry">
            <mxPoint x="610" y="277" as="sourcePoint" />
            <mxPoint x="750" y="510" as="targetPoint" />
            <Array as="points">
              <mxPoint x="700" y="277" />
              <mxPoint x="700" y="460" />
              <mxPoint x="750" y="460" />
              <mxPoint x="750" y="459" />
            </Array>
          </mxGeometry>
        </mxCell>
        <mxCell id="yacdEGkcFhaqMKAfXrDm-341" value="" style="fontSize=12;html=1;endArrow=ERzeroToMany;endFill=1;rounded=0;exitX=0.5;exitY=0.923;exitDx=0;exitDy=0;exitPerimeter=0;entryX=0.5;entryY=0;entryDx=0;entryDy=0;" edge="1" parent="1" source="yacdEGkcFhaqMKAfXrDm-283" target="yacdEGkcFhaqMKAfXrDm-321">
          <mxGeometry width="100" height="100" relative="1" as="geometry">
            <mxPoint x="930" y="290" as="sourcePoint" />
            <mxPoint x="830" y="390" as="targetPoint" />
          </mxGeometry>
        </mxCell>
        <mxCell id="yacdEGkcFhaqMKAfXrDm-348" value="" style="fontSize=12;html=1;endArrow=ERzeroToMany;endFill=1;rounded=0;edgeStyle=orthogonalEdgeStyle;exitX=1;exitY=0.5;exitDx=0;exitDy=0;entryX=1.005;entryY=-0.231;entryDx=0;entryDy=0;entryPerimeter=0;" edge="1" parent="1" target="yacdEGkcFhaqMKAfXrDm-283">
          <mxGeometry width="100" height="100" relative="1" as="geometry">
            <mxPoint x="1170" y="315" as="sourcePoint" />
            <mxPoint x="980" y="265" as="targetPoint" />
            <Array as="points">
              <mxPoint x="1070" y="315" />
              <mxPoint x="1070" y="230" />
            </Array>
          </mxGeometry>
        </mxCell>
        <mxCell id="yacdEGkcFhaqMKAfXrDm-349" value="" style="fontSize=12;html=1;endArrow=ERzeroToMany;endFill=1;rounded=0;edgeStyle=orthogonalEdgeStyle;exitX=0;exitY=0.5;exitDx=0;exitDy=0;" edge="1" parent="1">
          <mxGeometry width="100" height="100" relative="1" as="geometry">
            <mxPoint x="1170" y="328" as="sourcePoint" />
            <mxPoint x="970" y="480" as="targetPoint" />
            <Array as="points">
              <mxPoint x="1101" y="328" />
              <mxPoint x="1101" y="480" />
            </Array>
          </mxGeometry>
        </mxCell>
      </root>
    </mxGraphModel>
  </diagram>
</mxfile>
